<!-- Downloaded from the following source and then optimised with svgo. -->
<!-- https://cloud.google.com/translate/attribution -->
<!-- https://cloud.google.com/translate/images/google-translate-attribution.zip -->
<svg width="122" height="16" xmlns="http://www.w3.org/2000/svg">
    <g fill="none" fill-rule="evenodd">
        <path d="M79.16 5.586v1.639h3.922c-.117.922-.425 1.595-.893 2.063-.571.57-1.464 1.2-3.029 1.2-2.415 0-4.303-1.946-4.303-4.36 0-2.415 1.888-4.361 4.303-4.361 1.302 0 2.253.512 2.956 1.17l1.156-1.156C82.292.845 80.989.127 79.16.127c-3.307 0-6.088 2.693-6.088 6 0 3.308 2.78 6 6.088 6 1.785 0 3.131-.585 4.185-1.682 1.083-1.084 1.42-2.606 1.42-3.835 0-.38-.03-.731-.088-1.024H79.16" fill="#4285F4" />
        <path d="M89.667 4.255c-2.142 0-3.888 1.628-3.888 3.872 0 2.23 1.746 3.873 3.888 3.873s3.887-1.643 3.887-3.873c0-2.244-1.745-3.872-3.887-3.872zm0 6.219c-1.174 0-2.186-.968-2.186-2.347 0-1.393 1.012-2.347 2.186-2.347 1.173 0 2.186.954 2.186 2.347 0 1.379-1.013 2.347-2.186 2.347z" fill="#EB4335" />
        <path d="M108.72 5.12h-.059c-.382-.455-1.115-.865-2.039-.865-1.936 0-3.622 1.686-3.622 3.872 0 2.17 1.686 3.873 3.622 3.873.924 0 1.657-.41 2.04-.88h.058v.541c0 1.482-.792 2.274-2.069 2.274-1.041 0-1.686-.748-1.95-1.38l-1.482.617c.426 1.027 1.555 2.289 3.432 2.289 1.996 0 3.682-1.174 3.682-4.034V4.454h-1.613v.667zm-1.95 5.354c-1.174 0-2.068-.997-2.068-2.347 0-1.364.894-2.347 2.067-2.347 1.16 0 2.068.998 2.068 2.362 0 1.35-.908 2.332-2.068 2.332z" fill="#4285F4" />
        <path d="M98.333 4.255c-2.141 0-3.887 1.628-3.887 3.872 0 2.23 1.746 3.873 3.887 3.873 2.142 0 3.888-1.643 3.888-3.873 0-2.244-1.746-3.872-3.888-3.872zm0 6.219c-1.173 0-2.185-.968-2.185-2.347 0-1.393 1.012-2.347 2.185-2.347 1.174 0 2.186.954 2.186 2.347 0 1.379-1.012 2.347-2.186 2.347z" fill="#FBBC05" />
        <path d="M111.667.287h1.673V12h-1.673V.287z" fill="#34A853" />
        <path d="M118.51 10.474c-.865 0-1.481-.395-1.878-1.173l5.178-2.142-.176-.44c-.323-.865-1.305-2.464-3.315-2.464-1.995 0-3.652 1.57-3.652 3.872 0 2.172 1.642 3.873 3.843 3.873 1.775 0 2.801-1.085 3.227-1.717l-1.32-.88c-.44.646-1.042 1.07-1.907 1.07zm-.126-4.768c.689 0 1.272.35 1.467.854l-3.498 1.45c0-1.633 1.155-2.304 2.031-2.304z" fill="#EB4335" />
        <text opacity=".54" font-family="Roboto" font-size="12" fill="#000">
            <tspan x="0" y="12">translated by</tspan>
        </text>
    </g>
</svg>
